<svg width="1024" height="1024" viewBox="0 0 1024 1024" xmlns="http://www.w3.org/2000/svg">
  <!-- Fundo vermelho -->
  <rect width="1024" height="1024" fill="#b91c1c" rx="180"/>
  
  <!-- Círculo interno mais escuro -->
  <circle cx="512" cy="512" r="450" fill="#991b1b" opacity="0.3"/>
  
  <!-- Louros esquerda (simplificados) -->
  <path d="M200 450 Q180 500 200 550 L220 540 Q210 500 220 460 Z" fill="#fbbf24" stroke="#f59e0b" stroke-width="2"/>
  <path d="M220 400 Q200 450 220 500 L240 490 Q230 450 240 410 Z" fill="#fbbf24" stroke="#f59e0b" stroke-width="2"/>
  
  <!-- Louros direita (simplificados) -->
  <path d="M824 450 Q844 500 824 550 L804 540 Q814 500 804 460 Z" fill="#fbbf24" stroke="#f59e0b" stroke-width="2"/>
  <path d="M804 400 Q824 450 804 500 L784 490 Q794 450 784 410 Z" fill="#fbbf24" stroke="#f59e0b" stroke-width="2"/>
  
  <!-- Estrelas superiores -->
  <polygon points="512,120 520,150 550,155 525,175 532,205 512,190 492,205 499,175 474,155 504,150" fill="#fbbf24"/>
  <polygon points="350,180 355,200 375,202 360,215 365,235 350,225 335,235 340,215 325,202 345,200" fill="#fbbf24"/>
  <polygon points="674,180 679,200 699,202 684,215 689,235 674,225 659,235 664,215 649,202 669,200" fill="#fbbf24"/>
  <polygon points="250,250 255,270 275,272 260,285 265,305 250,295 235,305 240,285 225,272 245,270" fill="#fbbf24"/>
  <polygon points="774,250 779,270 799,272 784,285 789,305 774,295 759,305 764,285 749,272 769,270" fill="#fbbf24"/>
  
  <!-- Corpo do centauro (simplificado) -->
  <!-- Cavalo (parte inferior) -->
  <ellipse cx="512" cy="600" rx="180" ry="120" fill="#d1d5db" stroke="#9ca3af" stroke-width="4"/>
  
  <!-- Pernas -->
  <rect x="400" y="650" width="30" height="120" rx="15" fill="#9ca3af"/>
  <rect x="470" y="650" width="30" height="120" rx="15" fill="#9ca3af"/>
  <rect x="554" y="650" width="30" height="120" rx="15" fill="#9ca3af"/>
  <rect x="624" y="650" width="30" height="120" rx="15" fill="#9ca3af"/>
  
  <!-- Cascos -->
  <rect x="395" y="760" width="40" height="20" rx="10" fill="#1f2937"/>
  <rect x="465" y="760" width="40" height="20" rx="10" fill="#1f2937"/>
  <rect x="549" y="760" width="40" height="20" rx="10" fill="#1f2937"/>
  <rect x="619" y="760" width="40" height="20" rx="10" fill="#1f2937"/>
  
  <!-- Cauda -->
  <path d="M650 580 Q700 550 720 520 Q710 540 700 560 Q690 540 680 520 Q675 545 670 570 Z" fill="#6b7280" stroke="#4b5563" stroke-width="2"/>
  
  <!-- Torso humano -->
  <ellipse cx="512" cy="450" rx="80" ry="110" fill="#e5e7eb" stroke="#9ca3af" stroke-width="4"/>
  
  <!-- Cabeça -->
  <circle cx="512" cy="330" r="60" fill="#e5e7eb" stroke="#9ca3af" stroke-width="4"/>
  
  <!-- Cabelo -->
  <path d="M480 290 Q460 280 450 300 L470 310 Q475 295 485 290 Z" fill="#374151"/>
  <path d="M544 290 Q564 280 574 300 L554 310 Q549 295 539 290 Z" fill="#374151"/>
  <path d="M512 270 Q490 260 480 280 Q500 275 512 270 Q524 275 544 280 Q534 260 512 270 Z" fill="#374151"/>
  
  <!-- Arco -->
  <path d="M420 350 Q380 380 380 450 Q380 380 420 350" fill="none" stroke="#78350f" stroke-width="8" stroke-linecap="round"/>
  <line x1="420" y1="350" x2="420" y2="450" stroke="#78350f" stroke-width="3"/>
  
  <!-- Flecha -->
  <line x1="420" y1="400" x2="320" y2="400" stroke="#78350f" stroke-width="4"/>
  <polygon points="320,400 330,395 330,405" fill="#78350f"/>
  <path d="M430 395 L445 400 L430 405 Z" fill="#dc2626"/>
  
  <!-- Braços -->
  <line x1="450" y1="420" x2="420" y2="380" stroke="#9ca3af" stroke-width="15" stroke-linecap="round"/>
  <circle cx="420" cy="380" r="12" fill="#e5e7eb"/>
  
  <line x1="574" y1="420" x2="600" y2="350" stroke="#9ca3af" stroke-width="15" stroke-linecap="round"/>
  <circle cx="600" cy="350" r="12" fill="#e5e7eb"/>
  
  <!-- Faixa com texto -->
  <path d="M300 850 Q512 880 724 850 L720 900 Q512 920 304 900 Z" fill="#fbbf24" stroke="#f59e0b" stroke-width="3"/>
  <path d="M300 850 Q512 820 724 850" fill="#f59e0b"/>
  
  <!-- Texto QUIRON -->
  <text x="512" y="890" font-family="Arial, sans-serif" font-size="60" font-weight="bold" fill="#7f1d1d" text-anchor="middle">QUIRON</text>
  
  <!-- Sombra para dar profundidade -->
  <ellipse cx="512" cy="800" rx="200" ry="30" fill="#000000" opacity="0.2"/>
</svg>
